<svg width="16" height="16" viewBox="0 0 16 16" fill="none" xmlns="http://www.w3.org/2000/svg">
<g clip-path="url(#clip0_440_61980)">
<path d="M6 7H5V11H6V7Z" fill="#178FE6"/>
<path d="M2 4H1V14H2V4Z" fill="#D9D9D9"/>
<path d="M4 2L2 4V14L4 12V2Z" fill="#BBBBBB"/>
<path d="M5.5 7C6.32843 7 7 6.55228 7 6C7 5.44772 6.32843 5 5.5 5C4.67157 5 4 5.44772 4 6C4 6.55228 4.67157 7 5.5 7Z" fill="#D9D9D9"/>
<path d="M7 2H4V6H7V2Z" fill="#D9D9D9"/>
<path d="M5.5 3C6.32843 3 7 2.55228 7 2C7 1.44772 6.32843 1 5.5 1C4.67157 1 4 1.44772 4 2C4 2.55228 4.67157 3 5.5 3Z" fill="#F3F3F3"/>
<path d="M5.5 2.60425C6.05228 2.60425 6.5 2.33377 6.5 2.00012C6.5 1.66647 6.05228 1.396 5.5 1.396C4.94772 1.396 4.5 1.66647 4.5 2.00012C4.5 2.33377 4.94772 2.60425 5.5 2.60425Z" fill="#666666"/>
<path d="M4 2H3L1 4H2L4 2Z" fill="#F3F3F3"/>
<path d="M5.5 1C6.3 1 7 1.4 7 2V6C7 6.6 6.3 7 5.5 7C4.7 7 4 6.6 4 6V12L2 14H1V4L3 2H4C4 1.4 4.7 1 5.5 1ZM5.5 0C4.6 0 3.8 0.4 3.3 1H3H2.6L2.3 1.3L0.3 3.3L0 3.6V4V14V15H1H2H2.4L2.7 14.7L4.7 12.7L5 12.4V12V8C5.2 8 5.3 8 5.5 8C6.9 8 8 7.1 8 6V2C8 0.9 6.9 0 5.5 0Z" fill="#666666"/>
<path d="M15 4H14V14H15V4Z" fill="#D9D9D9"/>
<path d="M12 2L14 4V14L12 12V2Z" fill="#BBBBBB"/>
<path d="M10.5 13C11.3284 13 12 12.5523 12 12C12 11.4477 11.3284 11 10.5 11C9.67157 11 9 11.4477 9 12C9 12.5523 9.67157 13 10.5 13Z" fill="#D9D9D9"/>
<path d="M12 8H9V12H12V8Z" fill="#D9D9D9"/>
<path d="M10.5 9C11.3284 9 12 8.55228 12 8C12 7.44772 11.3284 7 10.5 7C9.67157 7 9 7.44772 9 8C9 8.55228 9.67157 9 10.5 9Z" fill="#F3F3F3"/>
<path d="M10.5 8.5C11.0523 8.5 11.5 8.27614 11.5 8C11.5 7.72386 11.0523 7.5 10.5 7.5C9.94772 7.5 9.5 7.72386 9.5 8C9.5 8.27614 9.94772 8.5 10.5 8.5Z" fill="#666666"/>
<path d="M12 2H13L15 4H14L12 2Z" fill="#F3F3F3"/>
<path d="M13 2L15 4V14H14L12 12C12 12.6 11.3 13 10.5 13C9.7 13 9 12.6 9 12V8C9 7.4 9.7 7 10.5 7C11.3 7 12 7.4 12 8V2H13ZM13.4 1H13H12H11V2V6C10.8 6 10.7 6 10.5 6C9.1 6 8 6.9 8 8V12C8 13.1 9.1 14 10.5 14C11.1 14 11.7 13.8 12.1 13.5L13.3 14.7L13.6 15H14H15H16V14V4V3.6L15.7 3.3L13.7 1.3L13.4 1Z" fill="#666666"/>
<path d="M11 4H10V8H11V4Z" fill="#178FE6"/>
</g>
<defs>
<clipPath id="clip0_440_61980">
<rect width="16" height="16" fill="white"/>
</clipPath>
</defs>
</svg>
