<svg width="16" height="16" viewBox="0 0 16 16" fill="none" xmlns="http://www.w3.org/2000/svg">
<g clip-path="url(#clip0_440_61981)">
<path d="M6 7.00757V11.6076C6.1 12.3076 6.8 12.8076 7.5 12.7076C8.2 12.8076 8.9 12.3076 9 11.6076V7.00757H6Z" fill="#BBBBBB"/>
<path d="M6.2 1.50757C6.1 1.60757 6 1.80757 6 2.00757C6 2.10757 6 2.30757 6.1 2.40757L3 5.00757H2L6.2 1.50757Z" fill="#F3F3F3"/>
<path d="M3 5.00757H2V14.0076H3V5.00757Z" fill="#D9D9D9"/>
<path d="M6 2.50757V11.5076L3 14.0076V5.00757L6 2.50757Z" fill="#BBBBBB"/>
<path d="M8.7998 1.50757C8.8998 1.60757 8.9998 1.80757 8.9998 2.00757C8.9998 2.10757 8.9998 2.30757 8.8998 2.40757L11.9998 5.00757H12.9998L8.7998 1.50757Z" fill="#F3F3F3"/>
<path d="M13 5.00757H12V14.0076H13V5.00757Z" fill="#BBBBBB"/>
<path d="M9 2.50757V11.5076L12 14.0076V5.00757L9 2.50757Z" fill="#D9D9D9"/>
<path d="M6 2.00757V6.40757C6 7.00757 6.7 7.50757 7.5 7.50757C8.3 7.50757 9 7.00757 9 6.40757V2.00757H6Z" fill="#D9D9D9"/>
<path d="M7.5 3.00757C8.32843 3.00757 9 2.55985 9 2.00757C9 1.45528 8.32843 1.00757 7.5 1.00757C6.67157 1.00757 6 1.45528 6 2.00757C6 2.55985 6.67157 3.00757 7.5 3.00757Z" fill="#F3F3F3"/>
<path d="M7.5 0.00758988C7.3 0.00758988 7.1 0.00758988 6.9 0.10759V1.10759C7.1 1.00759 7.3 1.00759 7.5 1.00759C8.3 1.00759 9 1.50759 9 2.00759V6.00759C9 6.60759 8.3 7.00759 7.5 7.00759C6.9 7.10759 6.3 6.70759 6 6.20759H5C5.2 7.30759 6.3 8.00759 7.5 8.00759C8.7 8.00759 9.9 7.20759 10 6.00759C10.1 5.00759 10 2.00759 10 2.00759C9.8 0.80759 8.7 -0.0924101 7.5 0.00758988Z" fill="#666666"/>
<path d="M7.5 2.50757C8.05228 2.50757 8.5 2.28371 8.5 2.00757C8.5 1.73143 8.05228 1.50757 7.5 1.50757C6.94772 1.50757 6.5 1.73143 6.5 2.00757C6.5 2.28371 6.94772 2.50757 7.5 2.50757Z" fill="#666666"/>
<path d="M7.5 1.00757C8 1.00757 8.4 1.20757 8.8 1.50757L13 5.00757V14.0076H12L9 11.5076C8.6 11.8076 8 12.0076 7.5 12.0076C7 12.0076 6.4 11.8076 6 11.5076L3 14.0076H2V5.00757L6.2 1.50757C6.6 1.10757 7 1.00757 7.5 1.00757ZM7.5 0.00756836C6.8 0.00756836 6.1 0.207568 5.6 0.707568L1.4 4.20757L1 4.50757V15.0076H3.4L3.7 14.8076L6.2 12.7076C7.1 13.1076 8.1 13.1076 9 12.7076L11.5 14.8076L11.8 15.0076H14V4.50757L13.6 4.20757L9.4 0.707568C8.9 0.207568 8.2 0.00756836 7.5 0.00756836Z" fill="#666666"/>
<path d="M7.5 12.0075C6.7 12.0075 6 11.6075 6 11.0075V6.20752H5V11.0075C5.1 12.2075 6 13.0075 7.5 13.0075C7.7 13.0075 8.1 12.0075 8.1 12.0075C7.9 12.0075 7.7 12.0075 7.5 12.0075Z" fill="#666666"/>
</g>
<defs>
<clipPath id="clip0_440_61981">
<rect width="16" height="16.0076" fill="white"/>
</clipPath>
</defs>
</svg>
