<svg width="16" height="16" viewBox="0 0 16 16" fill="none" xmlns="http://www.w3.org/2000/svg">
<g clip-path="url(#clip0_441_45118)">
<path d="M16 0L11 5V16L16 11V0Z" fill="#E69963"/>
<rect y="5" width="4" height="11" fill="#D9D9D9"/>
<path d="M8.59 0L4 4.59V5H0L5 0H8.59Z" fill="#F3F3F3"/>
<path d="M5 0L0 5V16H4V15H1V5.41L5.41 1H7.59L8.59 0H5Z" fill="#666666"/>
<path d="M10 0L5 5V16L10 11V0Z" fill="#5AC77E"/>
<path fill-rule="evenodd" clip-rule="evenodd" d="M5 16V5L10 0V11L5 16ZM6 13.59L9 10.59V2.41L6 5.41V13.59Z" fill="black" fill-opacity="0.2"/>
<path fill-rule="evenodd" clip-rule="evenodd" d="M11 16V5L16 0V11L11 16ZM12 13.59L15 10.59V2.41L12 5.41V13.59Z" fill="black" fill-opacity="0.2"/>
</g>
<defs>
<clipPath id="clip0_441_45118">
<rect width="16" height="16" fill="white"/>
</clipPath>
</defs>
</svg>
