<svg width="16" height="16" viewBox="0 0 16 16" fill="none" xmlns="http://www.w3.org/2000/svg">
<g clip-path="url(#clip0_441_44845)">
<path d="M14 10H10V16H14V10Z" fill="#D9BE6C"/>
<path d="M14 10L16 8V14L14 16V10Z" fill="#BFA34D"/>
<path d="M10 10L8 8V14L10 16V10Z" fill="#F2D785"/>
<path d="M14 6H10V10H14V6Z" fill="#BFA34D"/>
<path d="M8 8L10 10V6L8 8Z" fill="#D9BE6C"/>
<path d="M14 6V10L16 8L14 6Z" fill="#F2D785"/>
<path opacity="0.2" d="M14 6H10L8 8V14L10 16H14L16 14V8L14 6ZM14 7.41L14.59 8L14 8.59V7.41ZM13 7V8.29L11.71 7H13ZM11.71 12L13 10.71V12H11.71ZM11 7.71L12.29 9H11V7.71ZM11 10H12.29L11 11.29V10ZM12.29 13L11 14.29V13H12.29ZM10 7.41V8.59L9.41 8L10 7.41ZM9 9L10 10V11.59L9 10.59V9ZM9 13.59V12L10 13V14.59L9 13.59ZM11.71 15L13 13.71V15H11.71ZM15 13.59L14 14.59V13L15 12V13.59ZM15 10.59L14 11.59V10L15 9V10.59Z" fill="black"/>
<path d="M4 15L6.5 13.5L4 12.01V13H2V11H1V14H4V15Z" fill="#333333"/>
<path d="M6 2.5V7.5C6 8.33 4.88 9 3.5 9C2.12 9 1 8.33 1 7.5V2.5C1 1.67 2.12 1 3.5 1C4.88 1 6 1.67 6 2.5Z" fill="#D9D9D9"/>
<path d="M3.5 4C4.88071 4 6 3.32843 6 2.5C6 1.67157 4.88071 1 3.5 1C2.11929 1 1 1.67157 1 2.5C1 3.32843 2.11929 4 3.5 4Z" fill="#F3F3F3"/>
<path d="M3.5 0C1.5 0 0 1.07 0 2.5V7.5C0 8.93 1.5 10 3.5 10C5.5 10 7 8.93 7 7.5V2.5C7 1.07 5.5 0 3.5 0ZM6 7.5C6 8.33 4.88 9 3.5 9C2.12 9 1 8.33 1 7.5V2.5C1 1.67 2.12 1 3.5 1C4.88 1 6 1.67 6 2.5V7.5Z" fill="#666666"/>
</g>
<defs>
<clipPath id="clip0_441_44845">
<rect width="16" height="16" fill="white"/>
</clipPath>
</defs>
</svg>
