<svg width="16" height="16" viewBox="0 0 16 16" fill="none" xmlns="http://www.w3.org/2000/svg">
<path d="M4 0H12V6H4V0Z" fill="#BFA34D"/>
<path d="M4 0V6L0 3L4 0Z" fill="#D9BE6C"/>
<path d="M12 0L16 3L12 6V0Z" fill="#F2D785"/>
<path d="M4 6H12V16H4V6Z" fill="#D9BE6C"/>
<path d="M0 3L4 6V16L0 13V3Z" fill="#F2D785"/>
<path d="M12 6L16 3V13L12 16V6Z" fill="#BFA34D"/>
<path fill-rule="evenodd" clip-rule="evenodd" d="M1.66665 3.00002L3 4V3.99744L4 4.74744V1.25L1.66665 3.00002ZM4 6L1 3.75V7.69141L4 6.19141V6ZM3.38292 10.4999L1 9.30849V11.6914L3.38292 10.4999ZM4 14.75L1.24755 12.6857L4 11.3094V14.75ZM1.61898 8.49995L4 9.69046V7.30944L1.61898 8.49995ZM9.93987 6L5 9.52848V6.47188V6H6.05983H9.93987ZM9.93936 10H6.06033L11 6.47167V9.5287V10H9.93936ZM9.93987 11L5 14.5285V11.4719V11H6.05983H9.93987ZM11 11.4717L6.06033 15H9.93936H11V14.5287V11.4717ZM12 6V6.10953L15 6.85953V3.75L12 6ZM12 0L15.1693 2.37695L16 3V13L12 16H4L0 13V3L4 0H5H11H12ZM12 4.75391L14.336 3.00196L12 1.25V4.75391ZM12 9.49939V7.14031L14.3591 7.73008L12 9.49939ZM12 14.75V11.3085L14.7532 12.6851L12 14.75ZM15 8.49939V11.6905L12.4471 10.414L15 8.49939ZM5 1.47188L9.93936 5H5V1.47188ZM11 1H6.05983L11 4.5287V1Z" fill="black" fill-opacity="0.2"/>
</svg>
