<svg width="16" height="16" viewBox="0 0 16 16" fill="none" xmlns="http://www.w3.org/2000/svg">
<g clip-path="url(#clip0_441_57481)">
<path d="M12 0.999766V5.34977C12.9584 4.90258 13.965 4.56704 15 4.34977V0.259766C13.9805 0.419204 12.9767 0.666799 12 0.999766V0.999766ZM4.58001 5.99977H7.00001V3.74977C6.1276 4.42579 5.31768 5.17882 4.58001 5.99977V5.99977ZM1.41001 10.9998C0.870879 12.2833 0.484883 13.6259 0.26001 14.9998H4.32001C4.62494 13.5922 5.1515 12.2421 5.88001 10.9998H1.41001Z" fill="#F3F3F3"/>
<path d="M12 0.999766V2.09977C12.6519 1.84805 13.3201 1.64091 14 1.47977V3.53977C13.3177 3.72988 12.6495 3.96712 12 4.24977V5.34977C12.9584 4.90258 13.965 4.56704 15 4.34977V0.259766C13.9805 0.419204 12.9767 0.666799 12 0.999766V0.999766ZM4.58001 5.99977H5.94001C6.27554 5.64805 6.62936 5.31425 7.00001 4.99977V3.74977C6.1276 4.42579 5.31768 5.17882 4.58001 5.99977V5.99977ZM3.58001 13.9998H1.48001C1.71403 12.9694 2.04898 11.9645 2.48001 10.9998H1.41001C0.870879 12.2833 0.484883 13.6259 0.26001 14.9998H4.32001C4.62494 13.5922 5.1515 12.2421 5.88001 10.9998H4.74001C4.22749 11.951 3.8249 12.9575 3.54001 13.9998H3.58001Z" fill="#666666"/>
<path d="M11 7H1V10H11V7Z" fill="#67B1E6"/>
<path d="M11 1.41016V10.0002H8V3.00016C8.94568 2.37346 9.95048 1.84092 11 1.41016V1.41016Z" fill="#67B1E6"/>
<path d="M8 3.00016V7.00016H1V10.0002H11V1.41016C9.95048 1.84092 8.94568 2.37346 8 3.00016V3.00016ZM10 9.00016H2V8.00016H9V3.58016C9.32 3.37349 9.65333 3.18016 10 3.00016V9.00016Z" fill="black" fill-opacity="0.2"/>
</g>
<defs>
<clipPath id="clip0_441_57481">
<rect width="16" height="16" fill="white"/>
</clipPath>
</defs>
</svg>
