<svg width="16" height="16" viewBox="0 0 16 16" fill="none" xmlns="http://www.w3.org/2000/svg">
<g clip-path="url(#clip0_441_57478)">
<path fill-rule="evenodd" clip-rule="evenodd" d="M6.5 10H3.5L3 16H13L12.5 10H9.5V13C9.5 13.8284 8.82843 14.5 8 14.5C7.17157 14.5 6.5 13.8284 6.5 13V10Z" fill="#67B1E6"/>
<path fill-rule="evenodd" clip-rule="evenodd" d="M4.42013 11L4.0868 15H6.49976C5.89267 14.5439 5.5 13.8178 5.5 13V11H4.42013ZM3.5 10L3 16H13L12.5 10H9.5V13C9.5 13.8284 8.82843 14.5 8 14.5C7.17157 14.5 6.5 13.8284 6.5 13V10H3.5ZM10.5 11V13C10.5 13.8178 10.1073 14.5439 9.50024 15H11.9132L11.5799 11H10.5Z" fill="black" fill-opacity="0.2"/>
<path fill-rule="evenodd" clip-rule="evenodd" d="M4.10202 9C3.71914 9.29417 3.5 9.63571 3.5 10H8H12.5C12.5 9.63571 12.2809 9.29417 11.898 9H4.10202Z" fill="#89CBFA"/>
<path d="M6.5 10H9.5V13C9.5 13.8284 8.82843 14.5 8 14.5V14.5C7.17157 14.5 6.5 13.8284 6.5 13V10Z" fill="#4795CC"/>
<path fill-rule="evenodd" clip-rule="evenodd" d="M9.20002 13.9C8.92636 14.2643 8.49066 14.5 7.99991 14.5C7.50917 14.5 7.07347 14.2643 6.7998 13.9C7.07347 13.6571 7.50917 13.5 7.99991 13.5C8.49066 13.5 8.92636 13.6571 9.20002 13.9Z" fill="#89CBFA"/>
<path d="M9.5 10C9.5 10 8.82843 10 8 10C7.17157 10 6.5 10 6.5 10C6.5 9.72386 7.17157 9.5 8 9.5C8.82843 9.5 9.5 9.72386 9.5 10Z" fill="#4795CC"/>
<path d="M4 1H12V8.5H4V1Z" fill="#4795CC"/>
<path d="M12 6C12 6 10.2091 6 8 6C5.79086 6 4 6 4 6C4 4.89543 5.79086 4 8 4C10.2091 4 12 4.89543 12 6Z" fill="#89CBFA"/>
<path fill-rule="evenodd" clip-rule="evenodd" d="M4 3H1.5L2.33333 8.5H4H6V6H4V3ZM14.5 3H12V6H10V8.5H12H13.6667L14.5 3Z" fill="#5D9FCF"/>
<path fill-rule="evenodd" clip-rule="evenodd" d="M4 6V3H1.5L2.33333 8.5H6V6H4ZM5 7H3.11747L3.19323 7.5H5V7ZM3 6.22467V4H2.66293L3 6.22467ZM12 6H10V8.5H13.6667L14.5 3H12V6ZM13 4V6.22468L13.3371 4H13ZM12.8825 7H11V7.5H12.8068L12.8825 7Z" fill="#5D9FCF"/>
<path fill-rule="evenodd" clip-rule="evenodd" d="M12 3H14.5C14.5 1.34315 11.5899 0 8 0C4.41015 0 1.5 1.34315 1.5 3H4C4 1.89543 5.79086 1 8 1C10.2091 1 12 1.89543 12 3Z" fill="#89CBFA"/>
<path d="M6 3.1001H10L9.6 14.3001L8 15.9001L6.4 14.3001L6 3.1001Z" fill="#D9D9D9"/>
<path fill-rule="evenodd" clip-rule="evenodd" d="M6 3.1001L6.4 14.3001L8 15.9001L9.6 14.3001L10 3.1001H6ZM6.82908 3.9001L7.18826 13.957L8 14.7687L8.81174 13.957L9.17092 3.9001H6.82908Z" fill="#666666"/>
<path fill-rule="evenodd" clip-rule="evenodd" d="M4.00555 5.39202C4.00187 5.45137 4 5.51122 4 5.5715H4.04051C4.31779 6.54073 5.98488 7.28578 8 7.28578C10.0151 7.28578 11.6822 6.54073 11.9595 5.5715H12C12 5.51122 11.9981 5.45137 11.9945 5.39202C11.9981 5.35684 12 5.32142 12 5.28578C12 5.1428 11.97 5.00331 11.9129 4.86883C11.5998 3.63063 10.4783 2.71436 9.14286 2.71436H8.85714L8.28571 3.28579H8.01233C8.00822 3.28578 8.00411 3.28578 8 3.28578C7.99589 3.28578 7.99178 3.28578 7.98767 3.28579H7.71429L7.14286 2.71436H6.85714C5.52165 2.71436 4.40017 3.63063 4.08705 4.86883C4.03001 5.00331 4 5.1428 4 5.28578C4 5.32142 4.00186 5.35684 4.00555 5.39202Z" fill="#D9D9D9"/>
<path fill-rule="evenodd" clip-rule="evenodd" d="M4 5.5715H4.04051C4.31779 6.54073 5.98488 7.28578 8 7.28578C10.0151 7.28578 11.6822 6.54073 11.9595 5.5715H12C12 5.51122 11.9981 5.45137 11.9945 5.39202C11.9981 5.35684 12 5.32142 12 5.28578C12 5.18878 11.9862 5.09339 11.9595 5.00007C11.9468 4.95584 11.9313 4.91208 11.9129 4.86883C11.5998 3.63063 10.4783 2.71436 9.14286 2.71436H8.85714L8.28571 3.28579L8 3.28578L7.71429 3.28579L7.14286 2.71436H6.85714C5.52165 2.71436 4.40017 3.63063 4.08705 4.86883C4.06871 4.91208 4.05316 4.95584 4.04051 5.00007C4.01381 5.09339 4 5.18878 4 5.28578C4 5.32142 4.00186 5.35684 4.00555 5.39202C4.00187 5.45137 4 5.51122 4 5.5715ZM4.57812 5.37318L4.5899 5.41433C4.65846 5.65399 4.95152 5.98619 5.59743 6.26851C6.21701 6.53932 7.05753 6.71435 8 6.71435C8.94247 6.71435 9.78299 6.53932 10.4026 6.26851C11.0485 5.98619 11.3415 5.65399 11.4101 5.41433L11.4219 5.37318L11.4261 5.33253C11.4278 5.31702 11.4286 5.30145 11.4286 5.28578C11.4286 5.22464 11.4161 5.1608 11.3869 5.09195L11.3697 5.05151L11.359 5.00892C11.1084 4.01828 10.2105 3.28579 9.14286 3.28579H9.09384L8.52241 3.85721L8 3.85721L7.98853 3.85721L7.47759 3.85721L6.90616 3.28579H6.85714C5.78952 3.28579 4.89156 4.01828 4.64104 5.00892L4.63027 5.05151L4.61312 5.09195C4.58392 5.1608 4.57143 5.22464 4.57143 5.28578C4.57143 5.30146 4.57225 5.31702 4.57387 5.33253L4.57812 5.37318Z" fill="#666666"/>
<path d="M7.5 3.5H8.5V5H7.5V3.5Z" fill="#666666"/>
<path d="M9.5 3.75L8.75 3.5H8H7.25L6.5 3.75V4L7.5 4.25H8.5L9.5 4V3.75Z" fill="#666666"/>
<path fill-rule="evenodd" clip-rule="evenodd" d="M10.4931 8.87929C10.5385 9.15166 10.3545 9.40927 10.0821 9.45466L6.08225 9.95464C5.80988 10 5.55228 9.81604 5.50688 9.54366C5.46149 9.27129 5.64549 9.01368 5.91786 8.96829L9.91775 8.46831C10.1901 8.42291 10.4477 8.60691 10.4931 8.87929ZM10.4931 10.8792C10.5385 11.1516 10.3545 11.4092 10.0821 11.4546L6.08225 11.9546C5.80988 12 5.55228 11.816 5.50688 11.5436C5.46149 11.2712 5.64549 11.0136 5.91786 10.9682L9.91775 10.4682C10.1901 10.4228 10.4477 10.6068 10.4931 10.8792ZM10.4931 12.8791C10.5385 13.1515 10.3545 13.4091 10.0821 13.4545L6.08225 13.9545C5.80988 13.9999 5.55228 13.8159 5.50688 13.5435C5.46149 13.2711 5.64549 13.0135 5.91786 12.9681L9.91775 12.4682C10.1901 12.4228 10.4477 12.6068 10.4931 12.8791Z" fill="#666666"/>
</g>
<defs>
<clipPath id="clip0_441_57478">
<rect width="16" height="16" fill="white"/>
</clipPath>
</defs>
</svg>
