<svg width="16" height="16" viewBox="0 0 16 16" fill="none" xmlns="http://www.w3.org/2000/svg">
<g clip-path="url(#clip0_441_57479)">
<path fill-rule="evenodd" clip-rule="evenodd" d="M7 16H0V13H7V12V11V6H11V11H16V13V16H7Z" fill="#67B1E6"/>
<path opacity="0.2" d="M15 16V12H10V7H8V14H0V13H7V6H11V11H16V16C0.417757 16 -1.73146 16 15 16Z" fill="black"/>
<path fill-rule="evenodd" clip-rule="evenodd" d="M12 10H16V5V4V3V0H7H0V3H7V5H12V10Z" fill="#F3F3F3"/>
<path d="M12 10V5H7V3H0V2H8V4H13V9H15V0H0H16V10H12Z" fill="#666666"/>
</g>
<defs>
<clipPath id="clip0_441_57479">
<rect width="16" height="16" fill="white" transform="matrix(1 0 0 -1 0 16)"/>
</clipPath>
</defs>
</svg>
