<svg width="16" height="16" viewBox="0 0 16 16" fill="none" xmlns="http://www.w3.org/2000/svg">
<g clip-path="url(#clip0_239_24782)">
<path fill-rule="evenodd" clip-rule="evenodd" d="M6 2C6 0.89543 6.89543 0 8 0C8.53043 0 9.03914 0.210714 9.41421 0.585786C9.78929 0.960859 10 1.46957 10 2C10 3.10457 9.10457 4 8 4C6.89543 4 6 3.10457 6 2ZM9 2C9 1.44772 8.55228 1 8 1C7.44772 1 7 1.44772 7 2C7 2.55228 7.44772 3 8 3C8.55228 3 9 2.55228 9 2Z" fill="#178FE6"/>
<path fill-rule="evenodd" clip-rule="evenodd" d="M11 5C11 3.89543 11.8954 3 13 3C14.1046 3 15 3.89543 15 5C15 6.10457 14.1046 7 13 7C11.8954 7 11 6.10457 11 5ZM14 5C14 4.44772 13.5523 4 13 4C12.4477 4 12 4.44772 12 5C12 5.55228 12.4477 6 13 6C13.5523 6 14 5.55228 14 5Z" fill="#178FE6"/>
<path fill-rule="evenodd" clip-rule="evenodd" d="M11 11C11 9.89543 11.8954 9 13 9C14.1046 9 15 9.89543 15 11C15 12.1046 14.1046 13 13 13C11.8954 13 11 12.1046 11 11ZM14 11C14 10.4477 13.5523 10 13 10C12.4477 10 12 10.4477 12 11C12 11.5523 12.4477 12 13 12C13.5523 12 14 11.5523 14 11Z" fill="#178FE6"/>
<path fill-rule="evenodd" clip-rule="evenodd" d="M6 14C6 12.8954 6.89543 12 8 12C9.10457 12 10 12.8954 10 14C10 15.1046 9.10457 16 8 16C6.89543 16 6 15.1046 6 14ZM7 14C7 14.5523 7.44772 15 8 15C8.55228 15 9 14.5523 9 14C9 13.4477 8.55228 13 8 13C7.44772 13 7 13.4477 7 14Z" fill="#178FE6"/>
<path fill-rule="evenodd" clip-rule="evenodd" d="M1 5C1 3.89543 1.89543 3 3 3C3.53043 3 4.03914 3.21071 4.41421 3.58579C4.78929 3.96086 5 4.46957 5 5C5 6.10457 4.10457 7 3 7C1.89543 7 1 6.10457 1 5ZM4 5C4 4.44772 3.55228 4 3 4C2.44772 4 2 4.44772 2 5C2 5.55228 2.44772 6 3 6C3.55228 6 4 5.55228 4 5Z" fill="#666666"/>
<path fill-rule="evenodd" clip-rule="evenodd" d="M1 11C1 9.89543 1.89543 9 3 9C4.10457 9 5 9.89543 5 11C5 12.1046 4.10457 13 3 13C1.89543 13 1 12.1046 1 11ZM2 11C2 11.5523 2.44772 12 3 12C3.55228 12 4 11.5523 4 11C4 10.4477 3.55228 10 3 10C2.44772 10 2 10.4477 2 11Z" fill="#178FE6"/>
</g>
<defs>
<clipPath id="clip0_239_24782">
<rect width="16" height="16" fill="white"/>
</clipPath>
</defs>
</svg>
