<svg width="16" height="16" viewBox="0 0 16 16" fill="none" xmlns="http://www.w3.org/2000/svg">
<g clip-path="url(#clip0_441_82611)">
<path d="M0 0L4.33 8.63C5.27611 7.61049 6.60413 7.03114 7.995 7.03114C9.38587 7.03114 10.7139 7.61049 11.66 8.63L16 0H0Z" fill="#89CBFA"/>
<path d="M8 7C8.40877 7.00699 8.81513 7.06408 9.21 7.17L16 0H0L6.79 7.17C7.18487 7.06408 7.59123 7.00699 8 7V7Z" fill="#89CBFA"/>
<path d="M4.33 8.63L0 0L4.32 8.64L4.33 8.63Z" fill="#FFD2B2"/>
<path d="M11.6799 8.64L15.9999 0L11.6699 8.63L11.6799 8.64Z" fill="#FFD2B2"/>
<path d="M6.79 7.17L0 0L4.33 8.63C4.99031 7.91414 5.84531 7.4067 6.79 7.17Z" fill="#A2D8F9"/>
<path d="M11.67 8.63L16 0L9.20996 7.17C10.1547 7.4067 11.0096 7.91414 11.67 8.63V8.63Z" fill="#A2D8F9"/>
<path d="M4.32 8.64L0 0V11L3.09 12.93C2.78209 11.3852 3.24035 9.78694 4.32 8.64V8.64Z" fill="#4795CC"/>
<path d="M16.0002 0L11.6802 8.64C12.7598 9.78694 13.2181 11.3852 12.9102 12.93L16.0002 11V0Z" fill="#4795CC"/>
<path opacity="0.2" d="M13 11.7C12.9991 12.1116 12.9691 12.5226 12.91 12.93L16 10.93V0H0V10.93L3.09 12.93C3.03098 12.5126 3.00091 12.0916 3 11.67L1 10.31V1H15V10.41L13 11.7Z" fill="black"/>
<path fill-rule="evenodd" clip-rule="evenodd" d="M4 12C4 9.79086 5.79086 8 8 8C9.06087 8 10.0783 8.42143 10.8284 9.17157C11.5786 9.92172 12 10.9391 12 12C12 14.2091 10.2091 16 8 16C5.79086 16 4 14.2091 4 12ZM5 12C5 13.6569 6.34315 15 8 15C8.79565 15 9.55871 14.6839 10.1213 14.1213C10.6839 13.5587 11 12.7956 11 12C11 10.3431 9.65685 9 8 9C6.34315 9 5 10.3431 5 12Z" fill="#666666"/>
<circle cx="8" cy="12" r="3" fill="#F3F3F3"/>
</g>
<defs>
<clipPath id="clip0_441_82611">
<rect width="16" height="16" fill="white"/>
</clipPath>
</defs>
</svg>
