<svg width="16" height="16" viewBox="0 0 16 16" fill="none" xmlns="http://www.w3.org/2000/svg">
<path d="M8.5 6H6V14H0V4H4C5.8 4 7.4 4.8 8.5 6Z" fill="#D9D9D9"/>
<path d="M5 0L0 4H3L7 0H5Z" fill="#F3F3F3"/>
<path d="M1 4V13H6V14H0V3.6L3.6 0H7L6 1H4L1 4Z" fill="#666666"/>
<path d="M13.6998 5.8998L13.5998 5.9998H9.7998C8.7998 4.4998 7.1998 3.4998 5.2998 3.0998L8.0998 0.299805C10.7998 0.999805 12.9998 3.1998 13.6998 5.8998Z" fill="#67B1E6"/>
<path opacity="0.2" d="M8.0998 0.299805L5.2998 3.0998C7.0998 3.4998 8.6998 4.4998 9.7998 5.9998H10.9998C10.1998 4.4998 8.7998 3.2998 7.1998 2.5998L8.3998 1.3998C10.2998 2.0998 11.8998 3.5998 12.5998 5.5998L12.1998 5.9998H13.5998L13.6998 5.8998C12.9998 3.1998 10.7998 0.999805 8.0998 0.299805Z" fill="black"/>
<path d="M16 7H7V16H16V7Z" fill="#F3F3F3"/>
<path d="M15 8V15H8V8H15ZM16 7H7V16H16V7Z" fill="#666666"/>
<path d="M10 9H9V10H10V9Z" fill="#178FE6"/>
<path d="M14 9H11V10H14V9Z" fill="#178FE6"/>
<path d="M10 11H9V12H10V11Z" fill="#178FE6"/>
<path d="M14 11H11V12H14V11Z" fill="#178FE6"/>
<path d="M10 13H9V14H10V13Z" fill="#178FE6"/>
<path d="M14 13H11V14H14V13Z" fill="#178FE6"/>
</svg>
