<svg width="16" height="16" viewBox="0 0 16 16" fill="none" xmlns="http://www.w3.org/2000/svg">
<g clip-path="url(#clip0_441_82621)">
<path d="M0.935939 6.13318L15.7028 2.99804L15.8873 3.97866L1.12036 7.1138L0.935939 6.13318Z" fill="#178FE6"/>
<path d="M0.943263 9.13514L15.7102 6L15.8946 6.98061L1.12768 10.1158L0.943263 9.13514Z" fill="#178FE6"/>
<path d="M13.1764 1H3.76465V4.53L13.1764 2.53V1Z" fill="#F3F3F3"/>
<path d="M3.76465 14.9998H13.1764V11.5898L3.76465 13.5898V14.9998Z" fill="#F3F3F3"/>
<path d="M13.0833 14.9996H3.91667V13.5896L3 13.7896V15.9996H14V11.3896L13.0833 11.5896V14.9996Z" fill="#666666"/>
<path d="M4 1H12.9966V2.53L13.9988 2.33V0H3V4.73L4 4.53V1Z" fill="#666666"/>
<path d="M0.94131 12.1371L15.7082 9.00195L15.8926 9.98257L1.12573 13.1177L0.94131 12.1371Z" fill="#178FE6"/>
</g>
<defs>
<clipPath id="clip0_441_82621">
<rect width="16" height="16" fill="white"/>
</clipPath>
</defs>
</svg>
