<svg width="16" height="16" viewBox="0 0 16 16" fill="none" xmlns="http://www.w3.org/2000/svg">
<g clip-path="url(#clip0_441_82605)">
<path d="M6 4H0V16H12V10C12 6.68629 9.31371 4 6 4Z" fill="#D9D9D9"/>
<path d="M4 0L0 4H4L8 0H4Z" fill="#F3F3F3"/>
<path d="M16 11.88L12 16V12L16 8V12V12" fill="#BBBBBB"/>
<path d="M15 12L12 15H1V4L4 1H7L8 0H3.59L0 3.59V16H12.41L16 12.41V8L15 9V12Z" fill="#666666"/>
<path d="M9.28014 0.129883L6.39014 2.99988C9.95739 3.19366 12.8064 6.04263 13.0001 9.60988L15.9001 6.70988C15.3342 3.32314 12.6702 0.675242 9.28014 0.129883Z" fill="#67B1E6"/>
<path opacity="0.2" fill-rule="evenodd" clip-rule="evenodd" d="M6.39014 2.99988L9.28014 0.129883C12.6702 0.675242 15.3342 3.32314 15.9001 6.70988L13.0001 9.60988C12.8064 6.04263 9.95739 3.19366 6.39014 2.99988ZM9.62014 1.20988L8.44014 2.38988C10.8962 3.17885 12.8212 5.10378 13.6101 7.55988L14.8001 6.36988C14.1803 3.81314 12.1793 1.81983 9.62014 1.20988Z" fill="black"/>
</g>
<defs>
<clipPath id="clip0_441_82605">
<rect width="16" height="16" fill="white"/>
</clipPath>
</defs>
</svg>
