<svg width="16" height="16" viewBox="0 0 16 16" fill="none" xmlns="http://www.w3.org/2000/svg">
<g clip-path="url(#clip0_441_82616)">
<path fill-rule="evenodd" clip-rule="evenodd" d="M0 8C0 4.69 3.58 2 8 2C12.42 2 16 4.69 16 8C16 11.31 12.42 14 8 14C3.58 14 0 11.31 0 8ZM5 7.5C5 8.33 6.34 9 8 9C9.66 9 11 8.33 11 7.5C11 6.67 9.66 6 8 6C6.34 6 5 6.67 5 7.5Z" fill="#67B1E6"/>
<path opacity="0.2" d="M15.0001 8.14993V8.22993C15.005 8.19678 15.005 8.16308 15.0001 8.12993C15.0001 8.12993 15.0001 8.13993 15.0001 8.14993Z" fill="black"/>
<path fill-rule="evenodd" clip-rule="evenodd" d="M1 7.74C1.21 5.1 4.26 3 8 3C11.74 3 14.79 5.1 15 7.74C14.79 10.11 11.74 12 8 12C4.26 12 1.21 10.11 1 7.74ZM5 7.5C5 8.33 6.34 9 8 9C9.66 9 11 8.33 11 7.5C11 6.67 9.66 6 8 6C6.34 6 5 6.67 5 7.5Z" fill="#89CBFA"/>
<path opacity="0.2" fill-rule="evenodd" clip-rule="evenodd" d="M0 8C0 4.69 3.58 2 8 2C12.42 2 16 4.69 16 8C16 11.31 12.42 14 8 14C3.58 14 0 11.31 0 8ZM15 8C15 5.24 11.86 3 8 3C4.14 3 1 5.24 1 8C1 10.76 4.14 13 8 13C11.86 13 15 10.76 15 8Z" fill="black"/>
<path d="M11.5698 7.07011C11.566 7.23235 11.5425 7.39354 11.4998 7.55011C11.4998 6.48011 10.0898 5.55011 8.29977 5.55011H7.63977C5.87977 5.66011 4.49977 6.55011 4.49977 7.55011C4.44311 7.3724 4.41608 7.18659 4.41977 7.00011C4.41977 5.53011 5.93977 4.36011 7.93977 4.36011C9.93977 4.36011 11.5698 5.59011 11.5698 7.07011Z" fill="#67B1E6"/>
<path fill-rule="evenodd" clip-rule="evenodd" d="M4.5 7.5C4.5 6.42 6.07 5.5 8 5.5C9.93 5.5 11.5 6.42 11.5 7.5C11.5 8.58 9.93 9.5 8 9.5C6.07 9.5 4.5 8.58 4.5 7.5ZM5.5 7.6C5.5 7.92 6.45 8.6 8 8.6C9.55 8.6 10.5 7.92 10.5 7.6C10.5 7.28 9.55 6.6 8 6.6C6.45 6.6 5.5 7.28 5.5 7.6Z" fill="#67B1E6"/>
<path opacity="0.2" d="M4.53994 7.7999C4.54833 7.86837 4.56513 7.93554 4.58994 7.9999V7.9999C4.56643 7.93514 4.54967 7.86811 4.53994 7.7999Z" fill="black"/>
<path opacity="0.2" fill-rule="evenodd" clip-rule="evenodd" d="M4.5 7.5C4.5 6.42 6.07 5.5 8 5.5C9.93 5.5 11.5 6.42 11.5 7.5C11.5 8.58 9.93 9.5 8 9.5C6.07 9.5 4.5 8.58 4.5 7.5ZM5.5 7.6C5.5 7.92 6.45 8.6 8 8.6C9.55 8.6 10.5 7.92 10.5 7.6C10.5 7.28 9.55 6.6 8 6.6C6.45 6.6 5.5 7.28 5.5 7.6Z" fill="black"/>
</g>
<defs>
<clipPath id="clip0_441_82616">
<rect width="16" height="16" fill="white"/>
</clipPath>
</defs>
</svg>
