<svg width="16" height="16" viewBox="0 0 16 16" fill="none" xmlns="http://www.w3.org/2000/svg">
<g clip-path="url(#clip0_441_82622)">
<path fill-rule="evenodd" clip-rule="evenodd" d="M13 2H1V11H6V9.75006H7.27505L6.37344 8.84839L8.84805 6.37347L9.75 7.27533V6H13V2Z" fill="#F3F3F3"/>
<path d="M0.05 14.73C0.05 14.98 0 15.23 0 15.48C0.05 15.24 0.05 14.99 0.05 14.73Z" fill="#D9D9D9"/>
<path d="M9 5H5V6H9V5Z" fill="#666666"/>
<path d="M3.09 4.66012L2 3.63012L2.52 3.12012L4.13 4.66012L2.52 6.20012L2 5.69012L3.09 4.66012Z" fill="#666666"/>
<path fill-rule="evenodd" clip-rule="evenodd" d="M0 0H14V6.52515L13.25 7.27509V6H13V2H1V11H6V12H0V0Z" fill="#666666"/>
<path fill-rule="evenodd" clip-rule="evenodd" d="M10.75 7H12.25V8.59448C12.5253 8.66534 12.7852 8.77429 13.0239 8.91534L14.1516 7.78772L15.2123 8.84839L14.0846 9.97601C14.2257 10.2148 14.3347 10.4748 14.4055 10.7501H16V12.2501H14.4055C14.3347 12.5253 14.2257 12.7853 14.0846 13.024L15.2122 14.1517L14.1515 15.2123L13.0238 14.0847C12.7852 14.2258 12.5253 14.3347 12.25 14.4055V16H10.75V14.4055C10.4747 14.3347 10.2147 14.2257 9.97595 14.0846L8.84827 15.2123L7.7876 14.1517L8.91541 13.024C8.77429 12.7853 8.66528 12.5253 8.59448 12.2501H7V10.7501H8.59448C8.66528 10.4748 8.77429 10.2148 8.91528 9.97614L7.7876 8.84839L8.84814 7.78772L9.97595 8.91541C10.2147 8.77429 10.4747 8.66534 10.75 8.59448V7ZM12.5 11.5C12.5 12.0523 12.0523 12.5 11.5 12.5C10.9477 12.5 10.5 12.0523 10.5 11.5C10.5 10.9477 10.9477 10.5 11.5 10.5C12.0523 10.5 12.5 10.9477 12.5 11.5Z" fill="#178FE6"/>
</g>
<defs>
<clipPath id="clip0_441_82622">
<rect width="16" height="16" fill="white"/>
</clipPath>
</defs>
</svg>
