<svg width="16" height="16" viewBox="0 0 16 16" fill="none" xmlns="http://www.w3.org/2000/svg">
<g clip-path="url(#clip0_441_82613)">
<path d="M8 6C3.58 6 0 4.66 0 3V13C0 14.66 3.58 16 8 16C12.42 16 16 14.66 16 13V3C16 4.66 12.42 6 8 6Z" fill="#D9D9D9"/>
<ellipse cx="8" cy="3" rx="8" ry="3" fill="#89CBFA"/>
<path d="M15.22 2H0.78C0.319355 2.36702 0.0359018 2.91212 0 3.5C0 5.43 3.58 7 8 7C12.42 7 16 5.43 16 3.5C15.9641 2.91212 15.6806 2.36702 15.22 2Z" fill="#89CBFA"/>
<path d="M8 6C3.58 6 0 4.66 0 3V13C0 14.66 3.58 16 8 16C12.42 16 16 14.66 16 13V3C16 4.66 12.42 6 8 6Z" fill="#67B1E6"/>
<path opacity="0.2" fill-rule="evenodd" clip-rule="evenodd" d="M0 3C0 1.34 3.58 0 8 0C12.42 0 16 1.34 16 3V13C16 14.66 12.42 16 8 16C3.58 16 0 14.66 0 13V3ZM8 15C12.55 15 15 13.58 15 13V3C15 2.42 12.55 1 8 1C3.45 1 1 2.42 1 3V13C1 13.58 3.45 15 8 15Z" fill="black"/>
</g>
<defs>
<clipPath id="clip0_441_82613">
<rect width="16" height="16" fill="white"/>
</clipPath>
</defs>
</svg>
