<svg width="16" height="16" viewBox="0 0 16 16" fill="none" xmlns="http://www.w3.org/2000/svg">
<g clip-path="url(#clip0_441_82620)">
<path d="M6.58824 10.8235L0 8V11.7647L6.58824 14.5882V10.8235Z" fill="#67B1E6"/>
<path d="M15.059 5.17676H14.1178C11.1907 5.50617 9.41191 9.88264 6.58838 10.8238V14.5885C6.88082 14.4948 7.1643 14.3751 7.43544 14.2309C8.24242 13.7779 8.98876 13.2244 9.65661 12.5838V12.5838C11.0684 11.3132 12.3954 8.97911 14.1554 8.81911H15.0966V5.17676H15.059Z" fill="#4795CC"/>
<path d="M15.0588 4.23564L8.67765 1.41211C4.70588 1.53446 4.08471 6.29682 0 7.05917L6.58824 9.8827C9.41176 8.94152 11.2282 4.56505 14.1176 4.23564H15.0588Z" fill="#F3F3F3"/>
<path fill-rule="evenodd" clip-rule="evenodd" d="M4.27115 4.11894C5.47194 2.77263 6.62914 1.47522 8.67765 1.41211L15.0588 4.23564H14.1176C12.5715 4.41191 11.3326 5.74702 10.0822 7.09449C8.99586 8.26515 7.90087 9.44515 6.58824 9.8827L0 7.05917C1.97795 6.69001 3.14376 5.38293 4.27115 4.11894ZM6.58823 9.07329C7.73516 8.44732 8.74614 7.5995 9.56235 6.57917C10.4179 5.53984 11.4424 4.65211 12.5929 3.95329L8.56471 2.16505C6.93647 2.27799 5.96706 3.36034 4.85647 4.61211C4.06248 5.59657 3.10787 6.43981 2.03294 7.10623L6.58823 9.07329Z" fill="#666666"/>
<path opacity="0.2" d="M0 8.00029V11.765L6.58824 14.5885C6.88067 14.4948 7.16415 14.3751 7.43529 14.2309C8.24228 13.7779 8.98862 13.2244 9.65647 12.5838V12.5838C11.0682 11.3132 12.3953 8.97911 14.1553 8.81911H15.0965V5.17676H14.1176V6.11793V7.84029H14.0424C12.4612 8.01911 11.2188 9.39323 10.2118 10.5979C9.83822 11.0472 9.43913 11.4746 9.01647 11.8779C8.40784 12.4655 7.72804 12.9745 6.99294 13.3932L6.58824 13.5721L0.941176 11.1438V8.47088L0 8.00029Z" fill="black"/>
</g>
<defs>
<clipPath id="clip0_441_82620">
<rect width="16" height="16" fill="white"/>
</clipPath>
</defs>
</svg>
