<svg width="16" height="16" viewBox="0 0 16 16" fill="none" xmlns="http://www.w3.org/2000/svg">
<g clip-path="url(#clip0_441_82604)">
<rect x="5" y="9" width="7" height="7" fill="#F3F3F3"/>
<path fill-rule="evenodd" clip-rule="evenodd" d="M5 16V9H12V16H5ZM6 15H11V10H6V15Z" fill="#666666"/>
<path d="M16 4V4C16 3.17 14.9 3 14 3H9V0H8.93H9H4L0.69 2.5C0.254716 2.8773 0.00325044 3.42396 0 4V4V9C0 10.1046 0.89543 11 2 11H4V8H13V15L16 11V4Z" fill="#89CBFA"/>
<path d="M9 0V3H4.5L9 0Z" fill="#4795CC"/>
<path d="M6 8L9 5H2C1.12 5 0 4.83 0 4V4V9C0 10.1046 0.89543 11 2 11H4V8H6Z" fill="#67B1E6"/>
<path d="M14 3H5.39L9 0H4L0.69 2.5C0.254716 2.8773 0.00325044 3.42396 0 4C0 4.83 1.1 5 2 5H9L6 8H12.94L15.3 5.5C15.739 5.12455 15.9942 4.57763 16 4V4C16 3.17 14.88 3 14 3Z" fill="#89CBFA"/>
<path d="M16 4V4C15.9942 4.57763 15.739 5.12455 15.3 5.5L13 8V8V15L15.3 12.56C15.7338 12.1891 15.9885 11.6506 16 11.08V11V4Z" fill="#4795CC"/>
<path opacity="0.2" d="M13 15L15.3 12.56C15.7338 12.1891 15.9885 11.6506 16 11.08V11V4C16 3.17 14.88 3 14 3H9V0H8.93H9H4L0.69 2.5C0.254716 2.8773 0.00325044 3.42396 0 4V4V9C0 10.1046 0.89543 11 2 11H4V10H2C1.44772 10 1 9.55228 1 9V4C1.00288 3.71119 1.1305 3.43772 1.35 3.25L4.33 1H8V4H14C14.5523 4 15 4.44772 15 5V11C15.014 11.3341 14.8602 11.653 14.59 11.85L13 13.6" fill="black"/>
</g>
<defs>
<clipPath id="clip0_441_82604">
<rect width="16" height="16" fill="white"/>
</clipPath>
</defs>
</svg>
