<svg width="16" height="16" viewBox="0 0 16 16" fill="none" xmlns="http://www.w3.org/2000/svg">
<g clip-path="url(#clip0_441_82610)">
<path d="M13 3H1L3 1H15L13 3Z" fill="#F3F3F3"/>
<path d="M15 12.5L13 15V3L15 1V12.5Z" fill="#BBBBBB"/>
<path fill-rule="evenodd" clip-rule="evenodd" d="M0 2.59L2.59 0H16V12.85L13.48 16H0V2.59ZM13 15L15 12.5V1H3L1 3V15H13Z" fill="#666666"/>
<path d="M4 8.99993C4.01127 10.4519 5.06081 11.6874 6.49189 11.9333C7.92297 12.1792 9.32472 11.3649 9.82 9.99993C7.74925 9.90867 6.09126 8.25068 6 6.17993C4.80427 6.60268 4.00356 7.73168 4 8.99993Z" fill="#67B1E6"/>
<path opacity="0.2" fill-rule="evenodd" clip-rule="evenodd" d="M4.00567 9.34747C3.84947 7.95554 4.67724 6.64076 5.99994 6.17993C6.0912 8.25068 7.74919 9.90867 9.81994 9.99993C9.35911 11.3226 8.04433 12.1504 6.6524 11.9942C5.26047 11.838 4.16186 10.7394 4.00567 9.34747ZM4.99994 8.99993C4.99994 10.1045 5.89537 10.9999 6.99994 10.9999C7.41116 11.001 7.81273 10.8753 8.14994 10.6399C6.88254 10.1317 5.87812 9.12733 5.36994 7.85993C5.13296 8.19317 5.00383 8.59104 4.99994 8.99993Z" fill="black"/>
<path fill-rule="evenodd" clip-rule="evenodd" d="M1 15V3H13V15H1ZM3 9C3 11.2091 4.79086 13 7 13C8.06087 13 9.07828 12.5786 9.82843 11.8284C10.5786 11.0783 11 10.0609 11 9C11 6.79086 9.20914 5 7 5C4.79086 5 3 6.79086 3 9Z" fill="#D9D9D9"/>
<path fill-rule="evenodd" clip-rule="evenodd" d="M2 9C2 6.23858 4.23858 4 7 4C8.32608 4 9.59785 4.52678 10.5355 5.46447C11.4732 6.40215 12 7.67392 12 9C12 11.7614 9.76142 14 7 14C4.23858 14 2 11.7614 2 9ZM3 9C3 11.2091 4.79086 13 7 13C8.06087 13 9.07828 12.5786 9.82843 11.8284C10.5786 11.0783 11 10.0609 11 9C11 6.79086 9.20914 5 7 5C4.79086 5 3 6.79086 3 9Z" fill="#666666"/>
</g>
<defs>
<clipPath id="clip0_441_82610">
<rect width="16" height="16" fill="white"/>
</clipPath>
</defs>
</svg>
