<svg width="16" height="16" viewBox="0 0 16 16" fill="none" xmlns="http://www.w3.org/2000/svg">
<g clip-path="url(#clip0_441_82617)">
<path d="M8 4C5.0584 4.0003 2.21647 5.06603 0 7V12L3 15C4.34751 13.7152 6.13817 12.999 8 13C9.42148 13.0037 10.8112 13.4206 12 14.2V9.59L12.22 9.37L15.22 6.37C13.1273 4.83088 10.5977 4.00052 8 4Z" fill="#67B1E6"/>
<path d="M8 8.00002C9.51354 8.00554 10.9881 8.48074 12.22 9.36002L15.22 6.36002C10.6239 2.9792 4.29606 3.24529 0 7.00002L3 10C4.34751 8.71525 6.13817 7.99899 8 8.00002V8.00002Z" fill="#89CBFA"/>
<path d="M0 7V12L3 15V10.09V10L0 7Z" fill="#4795CC"/>
<path d="M12 14.1999V9.58993L12.22 9.36993C9.39487 7.33607 5.52222 7.60069 3 9.99993V14.9999C4.34751 13.7152 6.13817 12.9989 8 12.9999C9.42148 13.0036 10.8112 13.4205 12 14.1999Z" fill="#67B1E6"/>
<path d="M16 12L13 15V10L16 7V12Z" fill="#F3F3F3"/>
<path fill-rule="evenodd" clip-rule="evenodd" d="M13 15V10L16 7V12L13 15ZM14 12.59L15 11.59V9.41L14 10.41V12.59Z" fill="#666666"/>
<path opacity="0.2" d="M12 13.2C10.7904 12.4664 9.41367 12.0534 8 12C6.20115 11.9998 4.44931 12.5744 3 13.64L1 11.59V7.99996L0.69 7.68996L1 7.45996C2.98249 5.86202 5.45371 4.99357 8 4.99996C10 4.99996 13.39 5.99996 14.5 7.08996L15.22 6.36996C10.6262 2.98635 4.29845 3.24828 0 6.99996V12L3 15C4.34751 13.7152 6.13817 12.9989 8 13C9.42148 13.0036 10.8112 13.4206 12 14.2V13.2Z" fill="black"/>
<path d="M0.5 4.56993L1.28 1.67993L3.4 3.79993L0.5 4.56993Z" fill="#333333"/>
<path d="M2.73 3.19995C4.37845 2.42133 6.17695 2.0118 8 1.99995C10.1929 1.9712 12.3422 2.6132 14.16 3.83995L14.87 3.12995C12.8614 1.71436 10.4571 0.968942 8 0.999953C5.89879 0.982387 3.8298 1.51688 2 2.54995L2.73 3.19995Z" fill="#333333"/>
</g>
<defs>
<clipPath id="clip0_441_82617">
<rect width="16" height="16" fill="white"/>
</clipPath>
</defs>
</svg>
