<svg width="16" height="16" viewBox="0 0 16 16" fill="none" xmlns="http://www.w3.org/2000/svg">
<path d="M12.3555 3.55566C12.0515 3.55836 11.7504 3.61556 11.4666 3.72455L2.78217 6.59566C1.61945 7.06093 0.865703 8.19686 0.888839 9.449C0.828602 11.0349 2.05898 12.3724 3.6444 12.4446C3.94841 12.4419 4.24947 12.3847 4.53328 12.2757L13.2088 9.38678C14.3757 8.93509 15.1357 7.80218 15.1111 6.55122C15.1713 4.96531 13.9409 3.62777 12.3555 3.55566Z" fill="#89CBFA"/>
<path d="M15.1108 6.16895L2.11523 10.2489L3.89301 12.3912C4.109 12.3692 4.32297 12.3305 4.53301 12.2756L13.2086 9.38672C14.3754 8.93504 15.1354 7.80212 15.1108 6.55117C15.1196 6.42391 15.1196 6.2962 15.1108 6.16895V6.16895Z" fill="#67B1E6"/>
<path fill-rule="evenodd" clip-rule="evenodd" d="M0.888663 9.45786C0.80771 7.89933 1.99762 6.56663 3.55533 6.47119C5.11303 6.56663 6.30295 7.89933 6.222 9.45786C6.30295 11.0164 5.11303 12.3491 3.55533 12.4445C1.99762 12.3491 0.80771 11.0164 0.888663 9.45786ZM1.77755 9.45786C1.70039 10.5244 2.49054 11.4568 3.55533 11.5556C4.62012 11.4568 5.41026 10.5244 5.33311 9.45786C5.41026 8.39128 4.62012 7.45891 3.55533 7.36008C2.49054 7.45891 1.70039 8.39128 1.77755 9.45786Z" fill="#89CBFA"/>
<path opacity="0.2" fill-rule="evenodd" clip-rule="evenodd" d="M11.4666 3.72455C11.7504 3.61556 12.0515 3.55836 12.3555 3.55566C13.9409 3.62777 15.1713 4.96531 15.1111 6.55122C15.1357 7.80218 14.3757 8.93509 13.2088 9.38678L4.53328 12.2757C4.24947 12.3847 3.94841 12.4419 3.6444 12.4446C2.05898 12.3724 0.828602 11.0349 0.888839 9.449C0.865703 8.19686 1.61945 7.06093 2.78217 6.59566L11.4666 3.72455ZM4.25773 11.4312L12.9066 8.56011C13.7247 8.23463 14.2508 7.43118 14.2222 6.55122C14.283 5.4559 13.4502 4.516 12.3555 4.44455C12.145 4.44617 11.9367 4.48842 11.7422 4.569L3.09328 7.43122C2.27899 7.7662 1.75573 8.56877 1.77773 9.449C1.71689 10.5443 2.54971 11.4842 3.6444 11.5557C3.85494 11.554 4.0632 11.5118 4.25773 11.4312Z" fill="black"/>
<path fill-rule="evenodd" clip-rule="evenodd" d="M0.888663 9.45786C0.80771 7.89933 1.99762 6.56663 3.55533 6.47119C5.11303 6.56663 6.30295 7.89933 6.222 9.45786C6.30295 11.0164 5.11303 12.3491 3.55533 12.4445C1.99762 12.3491 0.80771 11.0164 0.888663 9.45786ZM1.77755 9.45786C1.70039 10.5244 2.49054 11.4568 3.55533 11.5556C4.62012 11.4568 5.41026 10.5244 5.33311 9.45786C5.41026 8.39128 4.62012 7.45891 3.55533 7.36008C2.49054 7.45891 1.70039 8.39128 1.77755 9.45786Z" fill="#89CBFA"/>
<path opacity="0.2" fill-rule="evenodd" clip-rule="evenodd" d="M0.888663 9.45786C0.80771 7.89933 1.99762 6.56663 3.55533 6.47119C5.11303 6.56663 6.30295 7.89933 6.222 9.45786C6.30295 11.0164 5.11303 12.3491 3.55533 12.4445C1.99762 12.3491 0.80771 11.0164 0.888663 9.45786ZM1.77755 9.45786C1.70039 10.5244 2.49054 11.4568 3.55533 11.5556C4.62012 11.4568 5.41026 10.5244 5.33311 9.45786C5.41026 8.39128 4.62012 7.45891 3.55533 7.36008C2.49054 7.45891 1.70039 8.39128 1.77755 9.45786Z" fill="black"/>
<path d="M1.83105 9.95569C1.95523 10.8297 2.67467 11.4972 3.5555 11.5557C4.62029 11.4569 5.41043 10.5245 5.33328 9.45792C5.33706 9.24828 5.31315 9.03907 5.26217 8.83569L1.83105 9.95569Z" fill="#67B1E6"/>
<path d="M3.55544 7.36011C2.49065 7.45893 1.7005 8.39131 1.77766 9.45789C1.77736 9.62525 1.79525 9.79216 1.831 9.95566L5.26211 8.83566C5.09401 8.01349 4.39327 7.40765 3.55544 7.36011V7.36011Z" fill="#4795CC"/>
</svg>
