<svg width="16" height="16" viewBox="0 0 16 16" fill="none" xmlns="http://www.w3.org/2000/svg">
<g clip-path="url(#clip0_441_82614)">
<circle cx="8" cy="8" r="8" fill="#89CBFA"/>
<path d="M0.0898438 9.12012C0.681599 13.0318 4.04367 15.9235 7.99984 15.9235C11.956 15.9235 15.3181 13.0318 15.9098 9.12012C13.4871 10.4385 10.7567 11.0875 7.99984 11.0001C5.24296 11.0875 2.51261 10.4385 0.0898438 9.12012V9.12012Z" fill="#67B1E6"/>
<path opacity="0.2" fill-rule="evenodd" clip-rule="evenodd" d="M0 8C0 3.58172 3.58172 0 8 0C10.1217 0 12.1566 0.842855 13.6569 2.34315C15.1571 3.84344 16 5.87827 16 8C16 12.4183 12.4183 16 8 16C3.58172 16 0 12.4183 0 8ZM1 8C1 11.866 4.13401 15 8 15C9.85652 15 11.637 14.2625 12.9497 12.9497C14.2625 11.637 15 9.85652 15 8C15 4.13401 11.866 1 8 1C4.13401 1 1 4.13401 1 8Z" fill="black"/>
</g>
<defs>
<clipPath id="clip0_441_82614">
<rect width="16" height="16" fill="white"/>
</clipPath>
</defs>
</svg>
