<svg width="16" height="16" viewBox="0 0 16 16" fill="none" xmlns="http://www.w3.org/2000/svg">
<path d="M16 11.88L12 16V11.4141L16 7.41406V11.88Z" fill="#BBBBBB"/>
<path d="M12 10C12 6.68629 9.31371 4 6 4C2.68629 4 0 6.68629 0 10V16H12V10Z" fill="#D9D9D9"/>
<path d="M15.9999 6C15.9999 2.68629 13.3136 0 9.99986 0C8.33293 0 6.82477 0.679771 5.73744 1.77723C5.68205 1.83313 5.62775 1.89012 5.57458 1.94815L4.31836 3.20327C4.85701 3.07046 5.42021 3 5.99986 3C9.54788 3 12.4794 5.63967 12.9376 9.06227L15.9999 6Z" fill="#67B1E6"/>
<path d="M15.9999 6C15.9999 2.68629 13.3136 0 9.99986 0C8.33293 0 6.82477 0.679771 5.73744 1.77723C5.68205 1.83313 5.62775 1.89012 5.57458 1.94815L4.31836 3.20327C4.85701 3.07046 5.42021 3 5.99986 3C9.54788 3 12.4794 5.63967 12.9376 9.06227L15.9999 6Z" fill="#67B1E6"/>
<path d="M6.09263 2.12914L6.09263 2.12914C7.08991 1.12256 8.47172 0.5 9.99986 0.5C12.9693 0.5 15.3892 2.85326 15.4962 5.79659L13.2435 8.04922C12.3847 4.85281 9.4674 2.5 5.99986 2.5C5.90776 2.5 5.81603 2.50166 5.72471 2.50496L5.92798 2.30186L5.93581 2.29404L5.94328 2.28588C5.99201 2.23269 6.0418 2.18043 6.09263 2.12914Z" stroke="black" stroke-opacity="0.2"/>
<path d="M12 10C12 6.68629 9.31371 4 6 4C2.68629 4 0 6.68629 0 10V16H12V10Z" fill="#D9D9D9"/>
<path fill-rule="evenodd" clip-rule="evenodd" d="M0 15.9999V9.99992C0 8.77319 0.368153 7.63243 1 6.68213V14.9999H11.5858L15 11.5857V8.41394L16 7.41394V10.9999V11.9999L15 12.9999L12 15.9999H1H0Z" fill="#666666"/>
</svg>
