<svg width="16" height="16" viewBox="0 0 16 16" fill="none" xmlns="http://www.w3.org/2000/svg">
<g clip-path="url(#clip0_441_82555)">
<path d="M8.7002 12.53L10.3302 13.47C10.8677 11.2699 12.1681 9.33164 14.0002 8.00003L12.6002 7.16003C10.7449 8.47233 9.37414 10.3598 8.7002 12.53V12.53Z" fill="#F3F3F3"/>
<path d="M12.6299 7.13003L13.9999 8.00003C12.1507 9.33404 10.8386 11.2845 10.2999 13.5L8.69988 12.53C8.58988 12.85 8.47988 13.16 8.37988 13.53L10.9999 15C11.6299 11.85 12.8799 9.46003 15.9999 8.00003L13.5699 6.53003C13.2399 6.72003 12.9299 6.92003 12.6299 7.13003Z" fill="#666666"/>
<path d="M7 1C3.09359 2.89763 0.44591 6.68002 0 11L7 15C7.88 10.58 9.63 7.25 14 5.16L7 1Z" fill="#E69963"/>
<path opacity="0.2" fill-rule="evenodd" clip-rule="evenodd" d="M0 11C0.44591 6.68002 3.09359 2.89763 7 1L14 5.16C9.63 7.25 7.88 10.58 7 15L0 11ZM1.08 10.46L6.32 13.46C7.32 9.56 9.08 7 12 5.13L7 2.13C3.85727 3.85596 1.67652 6.92449 1.08 10.46Z" fill="black"/>
</g>
<defs>
<clipPath id="clip0_441_82555">
<rect width="16" height="16" fill="white"/>
</clipPath>
</defs>
</svg>
