<svg width="16" height="16" viewBox="0 0 16 16" fill="none" xmlns="http://www.w3.org/2000/svg">
<g clip-path="url(#clip0_441_82567)">
<path fill-rule="evenodd" clip-rule="evenodd" d="M11 8.7C12.0664 8.30211 13.2679 8.61848 14 9.49C15.08 10.56 15.33 12.07 14.55 12.85C13.77 13.63 12.26 13.39 11.19 12.32C11.1608 12.2908 11.1228 12.2388 11.0885 12.1919C11.0407 12.1265 11 12.0709 11 12.1V12.25C11 13.77 10.1 15 9 15C7.9 15 7 13.77 7 12.25C6.87591 11.0548 7.58701 9.93028 8.72 9.53L4 4.8V2L9 7V0L11 2V8.7ZM10 8H9V9H10V8ZM9 14C8.53 14 8 13.25 8 12.25C8 11.25 8.53 10.5 9 10.5C9.47 10.5 10 11.25 10 12.25C10 13.25 9.47 14 9 14ZM11.89 11.61C12.59 12.32 13.5 12.47 13.83 12.14C14.17 11.81 14 10.91 13.3 10.2C12.6 9.49 11.72 9.34 11.36 9.67C11 10 11.19 10.9 11.89 11.61Z" fill="#333333"/>
<path d="M5.91021 8.14006L3.05021 11.0001L0.220215 8.17006L3.08021 5.31006L5.21022 7.44006L5.91021 8.14006Z" fill="#E69963"/>
<path opacity="0.2" d="M5.21022 7.44004L3.00021 9.59004L1.64021 8.17004L3.79021 6.00004L3.08021 5.29004L0.220215 8.17004L3.00021 11L5.91021 8.14004L5.21022 7.44004Z" fill="black"/>
<rect x="12" y="2" width="4" height="4" fill="#E69963"/>
<path opacity="0.2" d="M12 2V3H15V5H12V6H16V2H12Z" fill="black"/>
</g>
<defs>
<clipPath id="clip0_441_82567">
<rect width="16" height="16" fill="white"/>
</clipPath>
</defs>
</svg>
