<svg width="16" height="16" viewBox="0 0 16 16" fill="none" xmlns="http://www.w3.org/2000/svg">
<g clip-path="url(#clip0_441_82568)">
<path d="M4 3V4H6V6H4V7H6V9H4V10H6V13H0V0H6V3H4Z" fill="#E69963"/>
<path d="M1.85986 2.14008L1.91986 2.08008C1.88986 2.11008 1.87986 2.12008 1.85986 2.14008Z" fill="#FFFDFD"/>
<path opacity="0.2" d="M5 7V9H6V7H5ZM5 4V6H6V4H5ZM6 3V0H0V13H6V10H5V12H1V1H5V3H6ZM5 7V9H6V7H5Z" fill="black"/>
<path d="M9.79 12.5L9.29 13H7V10H7.89L7.59 10.3L8 10.71L9.29 12L9.79 12.5Z" fill="#E69963"/>
<path d="M13 0V9.29L12.5 9.79L10.3 7.59L8.89 9H7V7H9V6H7V4H9V3H7V0H13Z" fill="#E69963"/>
<path opacity="0.2" d="M7 4V6H8V4H7ZM9.29 12H8V10.71L7.59 10.3L7.89 10H7V13H9.29L9.79 12.5L9.29 12ZM7 0V3H8V1H12V9.29L12.5 9.79L13 9.29V0H7ZM7 7V9H8V7H7ZM7 4V6H8V4H7Z" fill="black"/>
<path d="M9 3H4V4H9V3Z" fill="#333333"/>
<path d="M9 6H4V7H9V6Z" fill="#333333"/>
<path d="M8.89 9L7.89 10H4V9H8.89Z" fill="#333333"/>
<path d="M16 10.3L14.7 9L12.5 11.2L10.3 9L9 10.3L11.2 12.5L9 14.7L10.3 16L12.5 13.8L14.7 16L16 14.7L13.8 12.5L16 10.3Z" fill="#FF3333"/>
</g>
<defs>
<clipPath id="clip0_441_82568">
<rect width="16" height="16" fill="white"/>
</clipPath>
</defs>
</svg>
