<svg width="16" height="16" viewBox="0 0 16 16" fill="none" xmlns="http://www.w3.org/2000/svg">
<g clip-path="url(#clip0_214_22801)">
<path d="M14.9067 2.91557C14.4565 1.71856 13.3231 0.916032 12.0445 0.888908H6.71113C5.74768 0.877581 4.80843 1.19067 4.04446 1.7778L1.91113 3.94669C1.33139 4.52719 0.970243 5.29031 0.888907 6.10669C0.87427 6.32273 0.87427 6.53953 0.888907 6.75557V11.8756C0.883956 13.6507 2.31382 15.0965 4.08891 15.1111H9.63557C11.4134 15.0134 12.8267 13.3334 13.1111 13.04L14.2222 11.9467L14.2845 11.8756C14.8683 11.1338 15.1818 10.2151 15.1734 9.27113V4.00002C15.1512 3.62532 15.0608 3.25782 14.9067 2.91557Z" fill="#A97EE6"/>
<path d="M14.222 4.00003C14.2128 2.79372 13.2501 1.81129 12.0442 1.77779H6.77307C6.03361 1.77525 5.31322 2.01226 4.71974 2.45337L2.52418 4.56892C2.08972 5.01584 1.82553 5.60082 1.77751 6.22226C1.76557 6.39983 1.76557 6.57801 1.77751 6.75559V11.8756C1.77278 12.4933 2.01362 13.0875 2.44704 13.5276C2.88046 13.9677 3.47096 14.2176 4.08862 14.2223H9.58196C11.0842 14.1423 12.4442 12.4445 12.4442 12.4445L13.2531 11.6356L13.5553 11.3334C14.0041 10.741 14.2391 10.0141 14.222 9.27115V4.00003Z" fill="#E0CAF9"/>
<path d="M13.333 4.13336C13.2107 4.14023 13.096 4.19443 13.013 4.28447L12.9685 4.32892L12.853 4.44447L12.373 4.92447C12.2671 5.01383 12.169 5.11195 12.0797 5.21781C11.7023 5.67942 11.5148 6.26738 11.5552 6.86225C11.5552 6.86225 11.5552 6.93336 11.5552 6.96892V10.2578C11.5427 10.7582 11.6149 11.257 11.7685 11.7334C11.8283 11.9098 11.9219 12.0728 12.0441 12.2134C12.0911 12.2624 12.145 12.3043 12.2041 12.3378C12.2747 12.3916 12.3569 12.4281 12.4441 12.4445L13.253 11.6356L13.5552 11.3334C14.0041 10.741 14.239 10.0141 14.2219 9.27114V6.35558C14.2219 5.12892 13.8219 4.13336 13.333 4.13336Z" fill="#9166CC"/>
<path d="M11.8848 1.77779H6.77366C6.0342 1.77525 5.31381 2.01226 4.72033 2.45337L4.48921 2.6667L2.66699 4.44448H9.16477C9.95667 4.46733 10.7322 4.21615 11.3603 3.73337L11.5559 3.55559C11.6249 3.48434 11.6874 3.40699 11.7425 3.32448C12.0354 2.86161 12.0883 2.28632 11.8848 1.77779Z" fill="#C499FF"/>
<rect x="2.66699" y="6.22223" width="7.11111" height="7.11111" rx="1.76" fill="#A97EE6"/>
<path opacity="0.2" fill-rule="evenodd" clip-rule="evenodd" d="M13.5733 6.8711C13.8987 6.47839 14.1216 6.01111 14.2221 5.5111C14.2436 5.79218 14.2436 6.07448 14.2221 6.35555V7.45777L13.3333 8.34666V11.0133C13.3435 11.1939 13.3435 11.375 13.3333 11.5555L12.4444 12.4444C12.3547 12.4203 12.2723 12.3745 12.2044 12.3111C12.3633 11.8969 12.4446 11.457 12.4444 11.0133V9.23555L11.8577 9.87555C11.7607 9.95186 11.6598 10.0231 11.5555 10.0889C11.3785 10.2066 11.191 10.3078 10.9955 10.3911C10.6414 10.5297 10.2709 10.6223 9.89325 10.6667H9.7777C9.60899 10.6779 9.43973 10.6779 9.27103 10.6667H6.22214V12C6.22192 13.0561 6.9651 13.9665 7.99992 14.1778C7.85366 14.2076 7.70474 14.2225 7.55547 14.2222H6.27547C5.67429 13.639 5.33446 12.8376 5.33325 12V10.6667H3.99992C3.16236 10.6655 2.36087 10.3256 1.7777 9.72444V8.44444C1.7629 8.29666 1.7629 8.14777 1.7777 7.99999H1.82214C2.03337 9.03481 2.94377 9.77799 3.99992 9.77777H5.33325V6.75555C5.32329 6.57791 5.32329 6.39985 5.33325 6.22222V6.10666C5.39801 5.71946 5.51462 5.34274 5.67992 4.98666C5.75991 4.79852 5.85503 4.61718 5.96436 4.44444C6.07441 4.26588 6.20249 4.09908 6.34658 3.94666L6.7377 3.55555C6.31677 3.55555 5.80317 3.56201 5.31246 3.56819C4.39385 3.57976 3.55547 3.59031 3.55547 3.55555L4.45325 2.66666H4.85325H7.64436L8.47992 1.8311L8.55992 1.77777H10.1688C10.3475 1.77831 10.5258 1.79317 10.7021 1.82222C10.1157 1.87756 9.55744 2.09964 9.09325 2.46222L8.88881 2.66666H10.311C11.4258 2.72792 12.4318 3.355 12.9777 4.32888C13.1349 4.60287 13.2376 4.90473 13.2799 5.21777C13.3159 5.40226 13.3337 5.58981 13.3333 5.77777V7.1111L13.5733 6.8711ZM11.5555 8.88888L12.4444 7.99999V5.73333C12.4573 5.60031 12.4573 5.46634 12.4444 5.33333C12.397 5.22216 12.3405 5.11512 12.2755 5.01333C12.0922 4.49669 11.7208 4.06818 11.2355 3.81333L11.0755 3.7511C10.9474 3.68779 10.8134 3.63717 10.6755 3.59999C10.5496 3.57424 10.4217 3.55937 10.2933 3.55555H7.99992L7.11103 4.44444L6.94214 4.56888C6.73736 4.79267 6.57474 5.05166 6.46214 5.33333C6.34307 5.61767 6.26237 5.91659 6.22214 6.22222C6.20995 6.39978 6.20995 6.57798 6.22214 6.75555V9.77777H9.7777L10.6666 9.5111C10.8788 9.42827 11.079 9.31768 11.2621 9.18222L11.5555 8.88888Z" fill="black"/>
<path fill-rule="evenodd" clip-rule="evenodd" d="M12.0445 0.888908C13.3231 0.916032 14.4565 1.71856 14.9067 2.91557C15.0608 3.25782 15.1512 3.62532 15.1734 4.00002V9.27113C15.1818 10.2151 14.8683 11.1338 14.2845 11.8756L14.2222 11.9467L13.1111 13.04C13.0887 13.0632 13.0592 13.095 13.023 13.134C12.6011 13.5889 11.2729 15.0211 9.63557 15.1111H4.08891C2.31382 15.0965 0.883956 13.6507 0.888907 11.8756V6.75557C0.87427 6.53953 0.87427 6.32273 0.888907 6.10669C0.970243 5.29031 1.33139 4.52719 1.91113 3.94669L4.04446 1.7778C4.80843 1.19067 5.74768 0.877581 6.71113 0.888908H12.0445ZM13.5734 11.3156C14.012 10.7258 14.2405 10.006 14.2222 9.27113V4.00002C14.2131 2.79371 13.2503 1.81127 12.0445 1.77771H6.77335C6.03491 1.77266 5.31461 2.00652 4.72002 2.44446L4.48891 2.66669L2.50669 4.56891C2.08242 5.02086 1.82526 5.60417 1.7778 6.22224C1.76585 6.39982 1.76585 6.578 1.7778 6.75557V11.8756C1.77306 12.4932 2.0139 13.0875 2.44732 13.5276C2.88074 13.9677 3.47124 14.2175 4.08891 14.2222H9.58224C11.0845 14.1422 12.4445 12.4445 12.4445 12.4445L13.2711 11.6178L13.5734 11.3156Z" fill="#A97EE6"/>
<path opacity="0.2" fill-rule="evenodd" clip-rule="evenodd" d="M12.0445 0.888908C13.3231 0.916032 14.4565 1.71856 14.9067 2.91557C15.0608 3.25782 15.1512 3.62532 15.1734 4.00002V9.27113C15.1818 10.2151 14.8683 11.1338 14.2845 11.8756L14.2222 11.9467L13.1111 13.04C13.0887 13.0632 13.0592 13.095 13.023 13.134C12.6011 13.5889 11.2729 15.0211 9.63557 15.1111H4.08891C2.31382 15.0965 0.883956 13.6507 0.888907 11.8756V6.75557C0.87427 6.53953 0.87427 6.32273 0.888907 6.10669C0.970243 5.29031 1.33139 4.52719 1.91113 3.94669L4.04446 1.7778C4.80843 1.19067 5.74768 0.877581 6.71113 0.888908H12.0445ZM13.5734 11.3156C14.012 10.7258 14.2405 10.006 14.2222 9.27113V4.00002C14.2131 2.79371 13.2503 1.81127 12.0445 1.77771H6.77335C6.03491 1.77266 5.31461 2.00652 4.72002 2.44446L4.48891 2.66669L2.50669 4.56891C2.08242 5.02086 1.82526 5.60417 1.7778 6.22224C1.76585 6.39982 1.76585 6.578 1.7778 6.75557V11.8756C1.77306 12.4932 2.0139 13.0875 2.44732 13.5276C2.88074 13.9677 3.47124 14.2175 4.08891 14.2222H9.58224C11.0845 14.1422 12.4445 12.4445 12.4445 12.4445L13.2711 11.6178L13.5734 11.3156Z" fill="black"/>
</g>
<defs>
<clipPath id="clip0_214_22801">
<rect width="16" height="16" fill="white"/>
</clipPath>
</defs>
</svg>
